/* XPM */
static char *result[] = {
/* columns rows colors chars-per-pixel */
"64 64 205 2 ",
"   c #000E35",
".  c #001535",
"X  c #00143A",
"o  c #041A38",
"O  c #141F36",
"+  c #152236",
"@  c #1C2536",
"#  c #1B2539",
"$  c #1A2638",
"%  c #20273E",
"&  c #292934",
"*  c #302D35",
"=  c #323239",
"-  c #343136",
";  c #25232E",
":  c #42332C",
">  c #4B362B",
",  c #513725",
"<  c #543927",
"1  c #553A28",
"2  c #5A3E2A",
"3  c #493A34",
"4  c #543D31",
"5  c #5C402B",
"6  c #564135",
"7  c #5A4536",
"8  c #5A4639",
"9  c #5F4837",
"0  c #61432E",
"q  c #654730",
"w  c #664832",
"e  c #6B4B33",
"r  c #624A38",
"t  c #6F4F38",
"y  c #704F35",
"u  c #6F5038",
"i  c #725136",
"p  c #755338",
"a  c #785539",
"s  c #081D42",
"d  c #081548",
"f  c #140F5E",
"g  c #291E5D",
"h  c #271C5C",
"j  c #102548",
"k  c #2B215D",
"l  c #3B285D",
"z  c #2B3D5D",
"x  c #3B335B",
"c  c #1B1565",
"v  c #1E1569",
"b  c #1B1862",
"n  c #20166B",
"m  c #2D1F62",
"M  c #301F66",
"N  c #2C2061",
"B  c #25226A",
"V  c #3C2960",
"C  c #362968",
"Z  c #3D336A",
"A  c #363466",
"S  c #4C3B44",
"D  c #463643",
"F  c #41375D",
"G  c #45385E",
"H  c #503F44",
"J  c #2D425C",
"K  c #3B4D6A",
"L  c #354665",
"P  c #3E516B",
"I  c #524144",
"U  c #4F4041",
"Y  c #42526F",
"T  c #465671",
"R  c #310E8A",
"E  c #36168D",
"W  c #2C0F83",
"Q  c #491D8E",
"!  c #64398D",
"~  c #480EAA",
"^  c #4B14A7",
"/  c #4B13AA",
"(  c #4710A7",
")  c #5215B5",
"_  c #582F8D",
"`  c #494287",
"'  c #69488C",
"]  c #5A6881",
"[  c #6F7C91",
"{  c #6E7691",
"}  c #727E93",
"|  c #6A778E",
" . c #5B0DCA",
".. c #580BC8",
"X. c #5E07D4",
"o. c #620DD5",
"O. c #640CD8",
"+. c #7A19D6",
"@. c #7838D4",
"#. c #6E05ED",
"$. c #720CEE",
"%. c #750AF7",
"&. c #7A06FE",
"*. c #7B0BFB",
"=. c #7808F9",
"-. c #7E12F4",
";. c #812FAA",
":. c #8130AA",
">. c #925BA7",
",. c #8F59A6",
"<. c #8C2AD7",
"1. c #A835D3",
"2. c #870EFA",
"3. c #8B14FA",
"4. c #8616FD",
"5. c #9517FA",
"6. c #A11FFA",
"7. c #9125F7",
"8. c #9A27F9",
"9. c #9235FD",
"0. c #8E29F8",
"q. c #A925F9",
"w. c #B72BFA",
"e. c #B038F4",
"r. c #C635FB",
"t. c #D73CFB",
"y. c #C22FFB",
"u. c #A842CC",
"i. c #B35FC9",
"p. c #B848D9",
"a. c #B76DC8",
"s. c #BA6ECA",
"d. c #B569C7",
"f. c #9A46FB",
"g. c #9642F9",
"h. c #AA45F8",
"j. c #AB51F9",
"k. c #B576FD",
"l. c #C46BD6",
"z. c #C673D3",
"x. c #CA76D6",
"c. c #DE4CFA",
"v. c #DA46F9",
"b. c #C657F9",
"n. c #D350FA",
"m. c #E352FD",
"M. c #E45DF9",
"N. c #E95FFE",
"B. c #E24FFE",
"V. c #D768F7",
"C. c #DD72F6",
"Z. c #D466F3",
"A. c #E376EE",
"S. c #EB62FD",
"D. c #E26CFC",
"F. c #E868F9",
"G. c #EF7BF7",
"H. c #E975FA",
"J. c #F47CFB",
"K. c #708091",
"L. c #8F99AA",
"P. c #929DAC",
"I. c #9B9FB8",
"U. c #9BA3B4",
"Y. c #A99BCF",
"T. c #BD96F2",
"R. c #C696FE",
"E. c #DC80F8",
"W. c #E984EE",
"Q. c #E783EC",
"!. c #ED83F7",
"~. c #F486F6",
"^. c #F48AF6",
"/. c #F98EF6",
"(. c #F786FA",
"). c #F78BF8",
"_. c #FA8CFA",
"`. c #F59DF7",
"'. c #F496F8",
"]. c #EA93FF",
"[. c #D6A0FC",
"{. c #F6A6F8",
"}. c #F9A6F9",
"|. c #F7BDFB",
" X c #EDB2F9",
".X c #BDC4CE",
"XX c #BFC9CF",
"oX c #C4CBD3",
"OX c #C8C5D5",
"+X c #CED3DA",
"@X c #D3DADE",
"#X c #D1D6DD",
"$X c #D2C3DD",
"%X c #DDC4FD",
"&X c #DFC8FD",
"*X c #E5C9FD",
"=X c #F7CDFB",
"-X c #E8D7FE",
";X c #F4D2FD",
":X c #F8D9FE",
">X c #FCE4FD",
",X c #FDECFE",
"<X c #F1F4F5",
"1X c #FEFFFE",
"2X c #F4F7F9",
/* pixels */
"p p p p p p p p p p p p p p i a p p p i p p p p p p i p p p p p p p p y a p p p p p p p p p i q 5 1 1 5 w y i a i a p i p p p p ",
"p p p p p p p p p p p p p p p p p p p p p p p p p p p p a y p p i p p p p p p p p p p p p p i q 5 1 1 5 q i a a a i p p p p p p ",
"p p p p p p p p i p p i p a p i p p p p p i p p p p p p p p p p p p p p p p p p p p p p a p i q 5 1 1 5 e e a i a p p a a i p p ",
"p p p p p p p p p p p a p i a a p p i p p a a p p p a p p p p p p p p p p a y p p p p p a p i q 5 1 1 5 q i a a a a a i p a a i ",
"p p p p p p p p a a a a p a p p p p p p a p p a p a a p p p a p p p p p p p p p p p p a a i i e 5 1 1 5 q i a a a a a p p a p p ",
"p p p p p p p p p p i i p p p p p p p p p p p p p p p a p p y p p p p p p p a i a i i a p i y q 5 1 < 5 q y i a p p i a p p p p ",
"i i y i i i i i i y y y i i i i p i p t y y t y y t y y y p p p p p p p p p p p p p i i i i t 0 5 < < 2 q y e i y y y y y y y y ",
"q w q q q w q q q q q q q q e e y p y t 6 4 3 4 q q q e y p p p p e r 8 6 r t i a i i t y e 0 5 1 < < 1 5 0 q w w w q w w w w w ",
"5 5 5 5 5 5 5 5 5 5 5 5 5 5 5 q t y y 7 & + O & > 2 0 q t y p p p r = $ $ = r a a p u t 0 0 2 1 < , , < 1 5 5 5 5 5 5 5 5 5 5 5 ",
"< 1 1 1 1 < 1 1 1 1 1 < < < 5 q e e q D F Z Z x - > 1 q e i p p r S N v v N S r u p p w 0 2 1 < , , , < < < 1 1 < 5 5 < < < < < ",
"1 1 < 1 1 1 1 1 1 1 1 < 1 1 2 0 e q * Z >.s.z.,.x ; > q q i p r = N ^  . ./ k = 9 p y w 0 5 1 1 < < 1 1 1 1 < 1 < < < < < , < 5 ",
"5 5 5 5 5 5 5 5 5 5 5 5 5 5 5 0 7 S F ' x._._.x.' l - 2 e e r S k R O.2.2. .n @ 7 p p e q 5 5 5 5 5 5 5 5 5 5 5 5 5 5 5 5 5 5 5 ",
"q w w w w w w q w w w w q e e 5 = F ,.x.W._._.W.x.>.x * r r = k ^ o.%.*.*. .n @ 8 p i y e w w q q q w e w w w w w w w w w w w w ",
"y y y i y y i y y y y y i e y 6 # Z s._._.~.^._._.x.' x 3 3 + n  .*.*.*.-.o.E k S r y p i i y i i y y y y y y y y y y y y y y y ",
"p p p p p p p p p p p p p p p 6 # Z s._._.^.^.^._.W.x.>.x O o n  .*.*.%.%.%.o.^ k = 9 p p p p p p p i p p p p p p i p p p p p i ",
"p a p p a p p p p p a p p a p 9 = G >.x.W._.).~.).(.J.l.! m V Q +.4.*.%.%.*.*. .v $ 8 p p p p p p p a p a p p p a a p a p p a a ",
"p a p p p p p a p p p p p p p p r H F ' x.).).^./.G.S.n.1.1.1.1.e.q.3.%.%.%.*. .b @ 8 p p p p p a p p a p p p p p p p p p p a p ",
"p p p p p p p p p p p p p p p p p 8 @ C i.J.~.^.~.G.M.c.c.m.m.m.c.r.q.3.3.3.2.X.E k S r u p p p p p p p p p p p p p p p p p p p ",
"p p p p p p p p a i p a p p p p p 7 ; M u.S.J.^.^.!.G.G.G.G.G.F.c.t.r.y.r.w.3.%.o.^ k = 9 p p p p p p p p p p p p p p p p p p p ",
"p p p p p p p p p p i p p p p t r S V _ p.M.J.^.^.^.^.^.^.^.~.G.M.c.v.t.v.r.6.3.2. .v $ 8 p p p p p p p i p p p p p p p p p p p ",
"p p p p p p p p i a i i p p i r = V ;.p.Z.G.~.^.^.^.^.^.~.~.^.~.G.F.c.t.t.t.r.q.3. .v $ 7 p p p p p p i p p p p p p p p p p p p ",
"p p p p p p p p a i a p p p p 8 # C u.S.G.^.^.^.^.^.~.^.`.{.{.{.}.'.H.D.D.D.H.b.7.X.R N S r u p p p p p p p p p p p p p p p p p ",
"p p p p p p p p i a p p p p p 8 @ C i.J.(.^.^.^.^.~.~.`.=X>X:X>X>X:X;X;X;X;X;X[.9.#.O./ k = 9 p p p p p p p p i p p p p p p p p ",
"p p p p p p p p p a p p a t r S l ! z./.).^.^.~.~./.`.|.,X1X1X1X1X1X1X1X1X1X1X-Xk.9.4. .v $ 7 p p p p p p p p p p p p p p p p p ",
"p p p a p p p p p p a p a r = V ;.p.A._.^.^.^.^.~.`.=X,X1X1X1X1X1X1X1X1X1X1X1X2X-XR.9. .n @ 8 p p a p p a i p p i p p p p p p p ",
"p p p p p p p p p p p p p 8 # C u.S.J.).^.^.~.^.`.|.,X<X#X.X.X.X.X+X<X1X1X1X1X2X@XY.@./ W k S w i i p p p p p a p p p p p p p p ",
"y y y y y y t i i i i i y 4 @ Z d.J.(.^.^.^.~.{.=X,X1X@X[ K K L L K.@X1X1X1X1X@XK.L n W ) ) N - 9 p p p p p p i p p i i i i i i ",
"q w w w q e q w q q q q q 4 O Z s._._.^.~.~.~.}.,X2X@XL.z s z K L T U.@X<X2X@XL.J o J ` ) / n @ 7 p p p p i p p p p i y e e q q ",
"5 5 5 5 5 5 5 5 5 5 5 5 5 : O Z s.(._.^.~.~.^.}.>X@X[ z o z L.oXoXU.] [ #X@X} z s L P.I.` c d j 8 p p p p p p a p p y y 0 0 5 5 ",
"1 < 1 1 1 1 1 < 1 1 1 1 1 : O Z a._.).^.^.^.).}.>XoXK   X Y oX1X1XoXL L oXoXK     T +X+XY o o & 8 p p p a i p i p i y q 0 2 < < ",
"1 1 < < < , , , < 1 1 1 1 : O Z a._.).^.^.^.~.}.,X.XK     Y oX1X1XoXL K oXoXY     T +X+XT . X j 8 p p p p p p p a p i e 5 2 1 < ",
"5 5 5 1 < , , < 1 2 5 5 5 : + Z s._.).~.~.~.~.}.,XoXP   X L P.oXoXL.z K oXOXY   . L P.U.L . o $ 8 p p p p a i p p p i t q 5 5 5 ",
"e q q 5 < < < 1 5 0 q q r 4 O Z s._.).^.^.~.~.}.,XXXK X X j L Y Y z s Y OXoXP   X j L J j o o j r p p p p p p p a p i y t q q q ",
"y y e 0 5 < < 2 0 t y t i 4 # Z d.J.(.^.^.^.^.}.=X$X{ J j X       s z } #X@X} z s X X d c c d % 9 a p p p y p p p p p y y y y y ",
"a a y e 0 2 2 5 e y p a p 8 $ C 1.S.J.^.^.^.^.^.`. X$XP.z         z L.@X2X<X@XP.z .   f ~ / b # 8 p p p p p p p y p p p p p a a ",
"a a y y q 0 0 0 y y i a a r = V :.p.A.^.^.^.^.~.~.}.,X@X[ K K K K } #X1X1X1X1X@X[ K P ` ) ) N = r i p p p p p p a p p p p p p a ",
"a y a y y q t t y i a a p u r S x ! x._.^.^.^.~.~.}.>X<X#XXXXXoX.X#X<X1X1X1X1X<X#XoXoXI.` m S r e p p p p p p p p p p p a a p p ",
"y a p y y t y y i p a i p p p 7 # C i.J.(.^.^.~.(.`.=X>X:X>X1X1X1X1X1X1X1X1X1X1X1X1X:XY.L @ 6 p p p p p p p p i p p p p y a p p ",
"p p p p p p a i i p i a p p p 6 # C u.S.J.^.^.^.^./.{.'.H.].>X1X1X1X1X1X1X2X1X1X1X-Xk.@.n @ 7 p p p p p p p p p y a a p p p p p ",
"p p p p a p p a a p a i p p p 9 - V :.p.A.^.^.^.^.~.~.G.m.D. X;X;X;X;X*X%X X%X*X*XT.@.~ m = 9 p p p p p p p p p p p y p p p p p ",
"i a a i p p a a p p p p p p p p r S l ! z.).).~.^.^.^.!.G.H.F.V.D.D.D.b.h.g.g.g.f.@.E N D r u p p p p p p p p p p p p p p p p p ",
"a i i a p p p p p p p p p p p p a 7 @ A d._._.^.^.^.^.^.^.G.M.c.M.V.D.V.j.0.-.#.X.( k = 9 p p p p p p p p p p p p p p p p i p p ",
"i i a i p p i a p p p p p p p p p r O V d._.).^.^.^.^.^.^.~.H.!. X;X;X*X*XR.9.X.W k 6 9 p p p p p p p p p p p p p p p p p p p p ",
"a a a p p p p p p a p p p p p e r S F ' x.).).^.^.!.C.C.!.^.`.=X,X1X1X1X1X%Xg.X.R k U r p p p p p p a p p p p a p p p a p a p p ",
"p p p p p p p p p p a p p p p r = G >.x.Q.^.^.^.^.C.e.e.C.{.;X,X1X1X1X1X1X%X9.#.X./ k = 9 a p p p a p p a p p p p p p p p p p p ",
"p p p p p p p p p p p p p p p 6 # Z s._._.~.~.).^.V.0.7.Z.{.>X1X1X1X1X1X1X-Xk.9.-. .v $ 8 p p p p p p p p p p p p p p p p p p p ",
"t y y y y y i t y y i p i i p 7 @ C a._./.~.~././.V.7.7.b.}.>X2X1X1X1X1X1X2X-XR.9. .c $ 6 i i y y y t y e y y y y y y y y y t y ",
"q q e q q q e q 0 e w e i e r I G ' z._./.~./.!.C.b.8.e.A.=X,X1X1X1X1X2X1X1X1X%Xf.o.R N = 7 q w q e q w e w q q e q e q q e q q ",
"5 2 2 5 5 5 5 2 2 5 0 0 t 7 - F >.x.W._.^.^.^.C.h.8.w.b. X,X1X1X1X1X1X2X1X1X1X%Xf.#.O.^ k & > 5 2 5 5 0 2 2 5 2 2 5 5 5 5 5 5 5 ",
"2 1 1 1 1 1 1 1 1 1 2 0 e 6 # Z s._._.^.^.^./.Z.7.3.y.H.;X1X1X1X1X1X1X1X1X1X1X%Xf.&.&. .v + : 1 1 1 1 1 1 1 2 1 1 1 1 1 1 1 1 1 ",
"1 1 1 1 1 1 1 1 1 1 2 0 e 6 # Z s._._.^.^././.V.7.2.w.F.;X1X1X1X1X1X1X1X1X1X1X%Xf.%.*. .v + : < , , , , < 1 1 2 1 1 1 1 1 1 1 1 ",
"5 5 5 5 5 5 5 2 2 2 0 0 t 4 # Z s._._.^./.!.C.b.8.8.v.G.;X1X1X1X1X1X1X1X1X1X1X%Xg.=.*. .v + : 1 , , , < 1 2 2 2 5 5 5 5 5 5 5 2 ",
"w w w w e q w q q q q t y 4 # Z s._._._./.C.e.8.w.n.M.'.>X2X1X1X2X1X1X1X1X1X1X%Xf.&.&. .v + 3 5 1 , , 2 2 0 0 e e q q q q q q q ",
"y y y y y y y y y y y y i r = F >.l.Z.C.C.b.8.6.y.v.G.{.;X,X1X1X1X1X1X1X1X2X-XT.@. . ./ N = 6 q 2 1 1 2 0 e y y i i i i i y i i ",
"p p p p p p p p a a p p p t r H x ` <.8.0.8.w.r.t.c.G.'.`.|.,X1X1X1X1X1X1X-Xk.@.E v v m U 9 e w 0 2 2 5 e y p p p p p p p p p p ",
"p a p p p p p p p a p p p p p r * h ( o.2.6.r.v.c.M.G.^.~.`.|.;X;X;X=X-X*XR.9...v o + = r p p e q 0 0 q t y a a p p p p p p p p ",
"p p p p p p a p p a p p p y p y w D h Q <.r.t.c.F.J.~.^._.(.H.D.C.D.D.V.j.9.-...v $ 3 9 u a p y y q e t i i p p p p p p p p p p ",
"p p p p p p p p p p p p p p p a a 7 @ C u.B.m.M.G./.^.Q.x.i.u.1.w.y.y.q.2.=.*. .n $ 8 p p p p i i i y i i p p p p p p p p p p p ",
"p p p p p p p p p p p p p p p p a 7 @ Z i.J.J.G.^.^._.x.' C C Q +.5.5.3.*.%.*. .v $ 8 p p p p p i i p p p p p p p p p p p p p p ",
"p p p p p p p a p p p p p p p p y 7 # Z s._._.~.^._._.s.Z . . v ..=.%.%.%.%.O.^ k = 9 p p p p p a p p p p p p p p p p p p p p p ",
"p p p p p p p y p p p p p p p p p 8 # Z a._.).^.^._._.s.Z . . v  .*.*.*.*.o.E k S r y p p p a i i p p a p p p i p p p p p p p p ",
"p p p p p p p p p p p p p p p p p 6 # Z a._.).^.^.Q.x.>.G $ o n  .*.%.%.*. .v @ 7 p p p i p p p a p p i p p p p p p p i p p p p ",
"p p y a p p p p y p p p p p y p p 8 # Z a._._.)._.z.' F I 3 $ n  .*.*.*.-. .b $ 7 p p p p p p p p p p p p p p p p p p p p p p p ",
"p p p p p p p p p p p p p p p p p 8 # Z a._.).)._.d.A ; 9 r $ n  .*.-.*.%. .n % 7 p p p p p a i p p a i p p i p p p p p p p p p "
};
