/* XPM */
static char *result[] = {
/* columns rows colors chars-per-pixel */
"64 64 161 2 ",
"   c #3F201B",
".  c #40211E",
"X  c #432421",
"o  c #442827",
"O  c #4D2A26",
"+  c #522B27",
"@  c #542D29",
"#  c #582E2A",
"$  c #513725",
"%  c #533927",
"&  c #5D322D",
"*  c #553A28",
"=  c #5A3E2A",
"-  c #432F31",
";  c #433033",
":  c #493437",
">  c #4A363A",
",  c #4C393F",
"<  c #60342F",
"1  c #653631",
"2  c #683732",
"3  c #663934",
"4  c #6C3A35",
"5  c #743D37",
"6  c #783E37",
"7  c #723D38",
"8  c #5C402B",
"9  c #5F4533",
"0  c #58443A",
"q  c #62442E",
"w  c #664730",
"e  c #664831",
"r  c #6B4B33",
"t  c #684C38",
"y  c #704F35",
"u  c #71423D",
"i  c #79423C",
"p  c #725136",
"a  c #755338",
"s  c #785539",
"d  c #4C424C",
"f  c #4B4D5C",
"g  c #654144",
"h  c #684546",
"j  c #634E44",
"k  c #6C4945",
"l  c #624649",
"z  c #6A474B",
"x  c #6C4A4E",
"c  c #744E4A",
"v  c #794F4A",
"b  c #675144",
"n  c #6B5444",
"m  c #65534A",
"M  c #6C564A",
"N  c #6E5A4F",
"B  c #73514D",
"V  c #7A514D",
"C  c #765E4F",
"Z  c #785F4D",
"A  c #6E4C50",
"S  c #734F52",
"D  c #625755",
"F  c #6C5355",
"G  c #755153",
"H  c #7C5653",
"J  c #745F51",
"K  c #7E5855",
"L  c #735A5F",
"P  c #766053",
"I  c #7A6355",
"U  c #70625D",
"Y  c #424D63",
"T  c #4D5266",
"R  c #455168",
"E  c #4A566D",
"W  c #545464",
"Q  c #575864",
"!  c #5B5C66",
"~  c #5C5C6B",
"^  c #4C5972",
"/  c #525E75",
"(  c #5B5F75",
")  c #556076",
"_  c #566279",
"`  c #5A667B",
"'  c #5B687D",
"]  c #61606F",
"[  c #65647A",
"{  c #777278",
"}  c #7B757B",
"|  c #82463F",
" . c #824740",
".. c #8C4C45",
"X. c #904F47",
"o. c #9C554D",
"O. c #87595B",
"+. c #885A5C",
"@. c #915F61",
"#. c #847775",
"$. c #857876",
"%. c #80797D",
"&. c #8C7D7B",
"*. c #937E7C",
"=. c #5B6985",
"-. c #646A81",
";. c #6E6E85",
":. c #636F8C",
">. c #62718F",
",. c #6D738A",
"<. c #737385",
"1. c #777884",
"2. c #7E7980",
"3. c #75748A",
"4. c #7A768B",
"5. c #7A798D",
"6. c #637390",
"7. c #6E7C97",
"8. c #6E7E9E",
"9. c #747D95",
"0. c #6F7FA0",
"q. c #807A81",
"w. c #807F8D",
"e. c #7D8191",
"r. c #76839C",
"t. c #7B859A",
"y. c #6F80A1",
"u. c #7081A1",
"i. c #7D89A1",
"p. c #7E8CA9",
"a. c #878084",
"s. c #86818F",
"d. c #998D8B",
"f. c #838593",
"g. c #868B93",
"h. c #898E95",
"j. c #8C8A9A",
"k. c #908D9D",
"l. c #8F9090",
"z. c #939494",
"x. c #9E9392",
"c. c #90959A",
"v. c #A09594",
"b. c #848FA6",
"n. c #8590A7",
"m. c #8C91A0",
"M. c #8794AF",
"N. c #8895AE",
"B. c #8F99AD",
"V. c #909BAF",
"C. c #8996B0",
"Z. c #919DB5",
"A. c #9DA0A0",
"S. c #98A1B2",
"D. c #9AA6BD",
"F. c #9CA8BF",
"G. c #A1A3A2",
"H. c #ABAEAF",
"J. c #B0B3B3",
"K. c #9CA9C0",
"L. c #A1ACC1",
/* pixels */
"a a a a a a a a a a a a a a a a a a p a a a a a a p a a a a a p a a a a a a a p a a a a a a p e 8 % * 8 w p a a a a a a a a a a ",
"a a a a a a a a a a a a a a a a a a a a a a a a a a a a a a a a a a a a a a a a a a a a a a p w 8 % * 8 w p a a a a a a a a a a ",
"a a a a a a a a a a a a a a a a a a a p a a a a a a a a a a a a a a a a a a a a a a a a a a p w 8 * * 8 e p a a a a a a a a a a ",
"a a a a s a a a a a a a a a a a a a a a a a a a a a a a a p a a a a a p a a a a a a a a s a p w 8 * * 8 w p a s s s a a a a a a ",
"a a a a a a a a a a a a a a a a a a a a a a a a a a a a a a a a a a a a a p a a p a a a a a a w 8 * % 8 w p a a s a a a a a a s ",
"a a a a a a a a a a a a a a a a a a a a a a a a a a a p a a a a a a a a a a a a a a a a a a y w 8 * % 8 w p a a a a a p a a a a ",
"p p r p p p p p p p p y p p p p p a a a p p y y p p p p a p a a a p p a a a a a a a a a a p r q 8 % % 8 e r p p p p y y y y p p ",
"w w w w w w w w e e w w w w e r p p p p r e e e w t M J P P I I I I I I I Z s a a a a p r w e 8 % % % * 8 q e w e e e e e e e e ",
"8 8 8 8 8 8 8 8 8 8 8 8 8 8 8 w y p p y e 8 8 8 = j { f.f.f.f.f.f.f.f.f.f.} Z s a a p r w 8 8 * $ $ $ * 8 8 8 8 8 8 8 8 8 8 8 8 ",
"* * * * % * * * % % * % % * 8 q e p p e 9 8 * % % m e.N.M.M.M.M.C.M.M.C.M.f.I s s a p r 8 8 * % $ $ $ $ $ % * % * * * * * * * * ",
"* * * * * * % * * % * % % % 8 q r p p e q 8 % % % j 5.C.M.M.C.C.M.C.N.C.M.g.I a a a p e 8 8 * % % * * * * * % % * * * * * % * * ",
"8 8 8 8 8 8 8 8 8 8 8 8 8 9 b N P P P P N M m j 0 D f.M.M.M.C.C.N.N.N.M.C.f.U n Z I P P N N m m m b 9 8 8 8 8 8 8 8 8 8 8 8 8 8 ",
"e e e e e e e e w w w w w M } f.f.f.f.s.e.f.f.<.Q ~ r.M.C.M.M.C.M.M.M.M.C.t.~ ! 1.f.f.f.e.f.e.s.e.} M w e e e e e e e e e e e e ",
"y y y y y p y y p p p p p P f.M.M.C.M.M.N.C.N.r./ _ i.Z.Z.Z.Z.C.Z.Z.Z.S.Z.i.) / r.C.C.C.C.M.M.C.C.f.P p y p y y y y y p y y y y ",
"a a p a a a a a a a a a a I f.M.C.C.C.N.N.N.C.r.) _ M.L.K.L.L.K.K.F.F.F.L.M._ / r.C.C.M.M.C.M.M.N.f.I a a a a a p a a a a a a a ",
"b M P I I I I I I I I Z M U e.M.C.N.N.N.N.C.M.r./ ) b.F.D.D.D.D.F.D.D.F.F.n.) ) r.C.C.C.C.M.M.C.N.e.U M J I I I I I I I I P M b ",
"f ! 1.g.g.f.f.f.f.f.g.1.! ~ t.C.C.C.M.M.M.C.C.r./ / 7.b.p.p.p.i.p.p.p.p.p.7./ / r.C.C.M.M.C.N.N.C.r.~ ~ 1.f.f.g.f.f.f.f.g.1.! f ",
"Y ) r.N.M.M.N.N.N.C.C.r./ / t.Z.Z.Z.Z.Z.Z.Z.Z.i./ E >.0.0.0.8.8.7.8.8.0.0.:.^ / b.Z.Z.Z.Z.Z.Z.Z.S.i.) ) r.C.C.C.M.M.N.N.C.r._ Y ",
"Y / r.C.C.N.N.N.N.C.C.r./ ` N.L.L.L.K.F.L.L.L.N.` ^ 6.0.8.8.8.8.8.8.8.8.0.6.E ` n.L.F.F.L.L.F.F.L.n._ / r.C.C.M.C.M.C.N.N.r._ Y ",
"Y ) r.C.C.C.N.N.C.C.C.r./ ` b.D.D.D.D.D.D.D.D.b.` ^ 6.0.0.8.8.0.8.0.8.0.0.6.^ ` b.D.D.D.D.D.D.D.F.n._ / r.C.C.C.M.C.M.N.N.r.) Y ",
"Y ) r.C.C.M.M.M.C.C.C.r./ ^ 8.b.p.p.p.b.p.p.p.7./ ^ >.0.u.0.0.0.8.0.0.0.u.6./ / 7.b.p.p.p.p.p.p.p.y./ ) r.M.C.M.M.M.M.C.N.r._ Y ",
"Y _ i.S.Z.Z.Z.Z.Z.Z.Z.i./ ^ >.0.8.8.8.8.8.8.8.>.^ ^ 6.0.u.0.0.0.0.0.u.u.u.6.^ ^ 6.8.0.0.8.8.8.8.y.>.^ ) t.S.Z.S.Z.Z.Z.S.S.i._ Y ",
"Y _ n.L.L.F.K.L.F.L.L.N.' ^ 6.0.8.8.8.8.8.0.8.6.^ / 7.u.u.u.0.0.u.u.u.u.0.6.^ ^ 6.0.8.8.0.0.0.0.y.>.^ _ M.L.F.F.K.L.F.F.L.n._ Y ",
"Y _ n.F.F.D.D.D.D.D.D.b._ ^ 6.u.0.0.u.u.0.u.u.>.T Y ( -.-.-.-.-.-.-.-.-.-.( T T 6.u.0.0.0.0.0.u.y.>.^ _ n.D.F.D.D.F.D.F.F.p._ Y ",
"Y ^ 7.p.p.p.p.p.p.p.p.7./ ^ 6.u.0.0.u.u.0.y.u.-.d - > , , , , , , , , , , > - d :.0.u.0.u.u.0.0.u.6.^ / 7.p.b.p.p.p.p.p.p.7.^ Y ",
"Y ^ 6.y.8.8.8.8.7.0.0.:.T f ( -.-.-.-.-.-.-.:.~ :   . . . . . . . . . . . . . > ~ =.-.-.-.-.-.-.-.( Y T :.0.0.8.8.8.8.8.8.>.^ Y ",
"Y ^ 6.y.8.8.8.8.0.0.0.-.d - > , , , , , , , , > o . . . . . . . .   . . . . . o : , , , , , , , , , - d -.0.0.8.8.8.8.8.u.6.^ Y ",
"Y ^ 6.u.u.0.0.0.0.y.y.-.,     . . . . . . . . . . X . X . X X . X X . X X . . . . . . . X . . .       , -.y.u.u.8.8.y.y.u.6.^ Y ",
"Y / 6.u.u.u.r.0.u.u.y.-., X   . . X . . . . . . X . . X . X X X . X . X . X X . . . . . . . . . .     , -.u.u.u.u.y.y.r.u.6./ Y ",
"Y ^ =.>.6.6.>.>.6.6.6.( > . . . . X X . X . . X o o X X X X X o X O X o X X X X X . X X X . X X X .   , _ 6.6.6.>.>.6.>.6.=.E R ",
"Y R E ^ ^ ^ ^ ^ ^ ^ ^ f - X . X . X . X X . . X O + X X @ # @ # + @ @ O X o O O X . X X . X X . X     - f ^ ^ ^ ^ ^ ^ ^ ^ E R R ",
"Y E ) ' ` ` ` ` ' ' ' W > X X o o X X X X o o O @ @ o X @ # # # & # # + O o @ @ O o X X X X X O X X O > W ' ` ` ` ` ` ` ` / E Y ",
"Y / t.Z.V.V.V.N.B.B.B.e.h + + + @ + X X O + @ @ # + o o @ & # # # & & @ o X + # @ @ @ O o X O @ @ @ + l 5.Z.C.V.V.B.B.B.Z.t.( Y ",
"Y ` b.K.D.D.D.D.F.K.K.j.x + & # # # X X # & 1 & & # O O @ & 1 & & & & @ O O & & < < < @ X o @ # # # # x j.K.D.D.D.D.D.D.D.n.` Y ",
"Y / 7.p.b.p.b.p.p.p.n.3.l # # & # # o O & 3 3 3 4 1 & # 1 3 3 3 3 3 3 1 & # 1 3 3 4 4 < O X @ # # # # l 3.M.M.n.b.p.p.p.p.7./ Y ",
"Y ^ 6.8.0.0.8.8.y.y.y.-.l & & < & @ O O 3 7 7 7 3 4 1 & 3 7 4 7 7 7 7 3 & & 3 7 4 7 4 1 + O # < < < & l -.0.0.0.8.8.8.0.0.:.^ Y ",
"Y ^ >.8.8.8.8.8.8.y.y.-.z 1 2 < 3 1 # # 3 4 7 4 4 3 1 & 3 4 7 4 4 7 5 3 1 < 3 7 7 4 4 3 & # 1 4 2 2 2 x ;.0.0.0.8.8.8.8.0.6.^ Y ",
"Y / 6.8.u.8.8.0.8.y.y.3.L V c V H c 3 1 4 3 4 4 7 4 < < 4 4 4 4 4 3 7 3 & 1 3 3 4 4 4 4 < < 3 4 4 4 4 A ;.0.0.0.8.8.8.u.u.6.^ Y ",
"Y ^ >.u.8.8.8.8.8.0.y.9.%.#.#.&.d.*.x & 2 4 4 4 4 3 < < 4 4 7 4 4 7 4 3 1 & 7 3 4 4 4 3 < < 4 4 4 4 4 A ;.0.0.0.8.8.0.u.u.6.^ Y ",
"Y / 6.u.u.u.u.u.u.8.u.r.f.z.z.A.H.x.B # 2 4 7 4 7 4 < < 3 4 7 3 7 3 7 3 & 1 3 7 7 4 4 4 < < 4 4 4 4 4 A ;.0.u.u.u.u.0.u.u.6./ Y ",
"Y / 6.u.u.u.u.u.0.0.u.r.f.z.G.H.J.x.B & 2 4 4 4 7 3 & 1 3 4 4 4 4 7 3 3 < < 3 4 4 4 5 4 < < 4 4 5 4 4 A ,.u.u.0.u.8.0.u.u.6.^ Y ",
"Y E =.6.6.6.6.6.6.6.6.,.2.&.d.v.v.$.k < 2 4 5 4 4 4 1 & 4 4 4 7 4 4 4 4 < < 3 4 5 4 4 4 < < 3 4 4 2 4 x [ 6.6.6.6.6.6.6.6.-.^ Y ",
"Y R ^ ^ E ^ ^ ^ ^ ^ ^ W F V H K H c 3 & 4 7 4 4 3 4 < < 4 4 7 4 4 4 4 4 < < 4 4 4 4 4 4 < < 4 4 4 2 5 g W ^ ^ ^ ^ ^ E ^ ^ E R Y ",
"Y T / ` ` ` ` ` ` ` ` ~ h 2 2 4 4 2 < < 3 4 4 4 4 4 < & 3 4 4 4 7 5 4 3 < 1 3 4 4 4 4 3 < < 2 u v v 7 h ~ ` ` ` ` ` ` ` ' _ E Y ",
"Y / t.Z.V.V.V.V.C.Z.V.s.G 2 2 4 4 3 < < 4 4 4 4 4 4 & 1 4 7 4 4 4 4 5 3 1 < 4 4 7 4 4 4 < < 2 V *.*.v S w.Z.V.V.B.V.V.N.V.t.` Y ",
"Y ` b.K.D.D.D.D.K.K.D.k.K 2 5 4 4 3 < < 3 4 5 4 4 4 1 & 3 3 4 7 7 4 4 3 < < 4 4 4 4 4 3 < < 2 K v.v.O.G j.K.D.D.D.D.D.K.D.n._ Y ",
"Y / 7.p.p.p.b.p.p.p.p.4.S 2 4 4 4 4 < < 4 4 4 4 4 4 1 & 3 4 3 7 4 4 7 3 < < 3 4 7 4 7 4 < # 2 K v.x.V c 3.p.p.p.b.p.p.p.b.7./ Y ",
"Y ^ >.0.8.8.8.8.0.0.0.;.c 4 4 4 4 4 < 1 4 4 4 4 4 3 & 1 3 7 4 4 4 4 4 3 < < 3 4 4 4 4 3 < < 2 H x.x.H x ;.0.0.8.8.8.0.0.0.>.^ Y ",
"Y / :.0.0.8.8.8.8.0.0.;.A 4 4 4 4 3 < < 3 4 4 4 4 3 1 & 4 4 3 7 7 4 4 3 & 1 3 7 7 4 4 4 < & 2 K v.x.H x ;.0.0.8.8.8.8.8.0.6.^ Y ",
"Y ^ 6.0.0.0.8.8.0.0.0.;.A 4 4 4 7 4 < < 3 7 7 4 7 3 1 & 3 4 4 7 4 4 4 4 & & 4 4 4 4 4 2 < & 2 K x.v.H x ;.y.0.8.0.8.8.u.u.6.^ Y ",
"Y ^ >.u.0.0.0.8.8.u.u.<.c 4 4 5 4 4 < < 4 4 4 4 4 4 & 1 3 7 4 4 4 4 7 3 1 < 3 4 4 4 4 4 < & 2 K v.x.H x ;.u.y.8.8.8.8.8.r.6.^ Y ",
"Y / 6.u.0.r.u.0.u.u.u.<.A 2 4 4 3 4 < < 3 4 7 4 4 3 1 & 4 7 4 3 4 7 4 3 < < 3 7 4 7 4 2 < < 2 K v.d.O.x ;.u.u.u.u.u.u.u.0.6./ Y ",
"Y / 6.u.u.u.8.0.0.0.0.;.A 2 4 4 4 3 & & 4 7 4 4 4 4 < < 4 4 4 4 4 4 4 4 < < 3 4 4 4 4 4 & & 2 K v.v.O.z ;.y.y.0.0.0.0.0.u.6.^ Y ",
"Y E =.6.6.6.6.>.6.6.6.[ z 4 4 4 4 2 < 1 3 4 3 7 4 3 < < 4 4 7 4 7 4 4 3 < < 4 4 4 7 4 3 1 & 2 V *.*.v h [ 6.6.>.6.6.6.6.6.=.^ Y ",
"Y Y ^ ^ / E ^ ^ ^ ^ ^ W g 2 5 2 4 2 1 & 4 4 4 4 7 4 & < 3 4 4 4 4 7 7 3 < < 4 3 7 4 4 4 1 & 3 u V V i g W ^ ^ ^ ^ ^ ^ E ^ E R Y ",
"Y E / ` ` ` ` ` ` ' =.] S c v v H c 3 & 4 4 4 7 4 3 1 & 4 4 7 4 4 4 4 3 1 & 4 4 4 4 4 4 & 1 4 4 4 2 4 h ! ' ` ` ` ` ` ` ' ` E Y ",
"Y / t.V.B.B.B.B.B.B.B.j.a.#.#.&.d.&.h < 2 4 4 4 7 3 1 & 3 4 7 4 4 7 5 3 1 & 4 4 7 4 4 7 < < 3 4 5 2 4 G f.V.V.B.B.B.B.V.Z.t.( Y ",
"Y ` n.K.K.D.D.K.D.D.D.Z.c.z.z.A.H.x.c # 2 4 4 7 4 4 & 1 3 4 4 4 4 4 4 3 & 1 4 4 4 4 4 3 < < 3 7 4 4 4 G k.K.K.D.D.D.D.D.D.b._ Y ",
"Y / 7.p.b.p.n.b.b.p.p.b.h.z.G.H.J.x.M & 2 4 7 4 4 3 1 & 3 5 7 4 4 7 4 3 & 1 3 4 4 3 4 4 < < 3 4 4 4 4 S 4.p.p.p.b.p.p.p.b.7./ Y ",
"Y ^ :.0.0.0.8.8.0.0.0.7.2.&.d.x.v.&.k & 2 4 4 4 4 3 & & 3 7 5 4 3 7 4 3 1 & 3 7 4 4 7 3 < < 4 4 5 2 4 A ;.0.0.8.8.8.8.8.0.6.^ Y ",
"Y ^ 6.0.8.8.8.8.0.0.0.,.L v V K K c 3 & 3 4 4 7 7 3 1 & 3 4 4 4 4 4 4 2 & < 3 7 4 4 4 4 & & 3 4 4 4 4 A ;.0.0.8.8.8.8.8.0.6.^ Y ",
"Y ^ 6.0.u.8.8.8.8.0.0.,.G 7 5 i 7 5 1 1 7 i i i 7 7 1 1 7 6 i i i i i 7 1 & 7 i i i i 7 1 1 5 i i 6 6 S <.u.0.0.8.u.8.8.0.6.^ Y ",
"Y ^ 6.0.0.0.0.8.0.0.0.4.+.| ..X... .2 3  .X...X.X. .3 3 v X.X.X.X.X.X.| 2 2 v X.X.X... .3 3  .X.X.X.X.+.3.0.u.u.8.8.u.u.u.6.^ Y ",
"Y / 6.0.0.8.8.8.0.0.0.q.@.o.o.o.o...3 4 ..o.o.o.o...3 4 ..o.o.o.o.o.o...2 2 ..o.o.o.o...4 4 ..o.o.o.o.@.4.y.8.8.8.0.u.u.u.6.^ Y "
};
