/* XPM */
static char *result[] = {
/* columns rows colors chars-per-pixel */
"64 64 221 2 ",
"   c #513725",
".  c #533927",
"X  c #553A28",
"o  c #5A3E2A",
"O  c #4F3F39",
"+  c #523D32",
"@  c #5C402B",
"#  c #594437",
"$  c #4E413E",
"%  c #61432E",
"&  c #664730",
"*  c #664831",
"=  c #6B4B33",
"-  c #694E3C",
";  c #634B3B",
":  c #704F35",
">  c #6D513F",
",  c #725136",
"<  c #755338",
"1  c #785539",
"2  c #343E5C",
"3  c #313E62",
"4  c #3D455C",
"5  c #3F485F",
"6  c #36405D",
"7  c #3D4661",
"8  c #3F4860",
"9  c #364263",
"0  c #4D4141",
"q  c #4A454B",
"w  c #4F494F",
"e  c #524543",
"r  c #5B4C46",
"t  c #5B4E4B",
"y  c #544A4A",
"u  c #474653",
"i  c #494752",
"p  c #474957",
"a  c #4C4A54",
"s  c #40475C",
"d  c #434A5E",
"f  c #4B4D5B",
"g  c #524D53",
"h  c #4E505C",
"j  c #5D5955",
"k  c #52525B",
"l  c #5A555C",
"z  c #5B595A",
"x  c #614E45",
"c  c #655045",
"v  c #695142",
"b  c #645B4D",
"n  c #645D53",
"m  c #665A5B",
"M  c #725F5A",
"N  c #6C624E",
"B  c #71654D",
"V  c #7B6B4A",
"C  c #7B6B48",
"Z  c #6A6356",
"A  c #786557",
"S  c #414960",
"D  c #4A4F62",
"F  c #4E556A",
"G  c #4B5267",
"H  c #535362",
"J  c #50566A",
"K  c #585B68",
"L  c #575E71",
"P  c #685861",
"I  c #725C61",
"U  c #5A6174",
"Y  c #576179",
"T  c #5F636F",
"R  c #796266",
"E  c #666C7A",
"W  c #706F71",
"Q  c #9A7D3B",
"!  c #88713E",
"~  c #876E4C",
"^  c #8C7643",
"/  c #887247",
"(  c #937942",
")  c #92764D",
"_  c #846858",
"`  c #9D7356",
"'  c #8C7459",
"]  c #A77C49",
"[  c #A6745B",
"{  c #B47D55",
"}  c #B07C4D",
"|  c #847C69",
" . c #927067",
".. c #9F803A",
"X. c #9F8036",
"o. c #AD8936",
"O. c #A3833A",
"+. c #A88539",
"@. c #B28C33",
"#. c #B68B3A",
"$. c #BD9234",
"%. c #BC922F",
"&. c #FEB80E",
"*. c #E0A71C",
"=. c #EAAE1E",
"-. c #E3AA1C",
";. c #EFB11D",
":. c #F3B216",
">. c #FAB614",
",. c #FDBA15",
"<. c #F4B41B",
"1. c #F9B61A",
"2. c #FCB91A",
"3. c #F7AF1C",
"4. c #C2962E",
"5. c #CB9C2A",
"6. c #C79928",
"7. c #D19E25",
"8. c #D59E2B",
"9. c #C69635",
"0. c #D8973B",
"q. c #CA8F3B",
"w. c #E19936",
"e. c #E49C39",
"r. c #D5A126",
"t. c #DCA524",
"y. c #DBA52A",
"u. c #D5A536",
"i. c #E3AA21",
"p. c #ECAA26",
"a. c #E7A62A",
"s. c #F2AD23",
"d. c #F2AA2B",
"f. c #EFB52A",
"g. c #F3B422",
"h. c #F6BA29",
"j. c #E8A234",
"k. c #ECB636",
"l. c #F2BA36",
"z. c #F8C13C",
"x. c #9C8246",
"c. c #9B8759",
"v. c #BC9B4C",
"b. c #AD9354",
"n. c #B4884A",
"m. c #918975",
"M. c #B09271",
"N. c #B8A575",
"B. c #BDA057",
"V. c #C5884B",
"C. c #D58B4D",
"Z. c #D78E48",
"A. c #D9914A",
"S. c #D79147",
"D. c #C88555",
"F. c #D08756",
"G. c #D38955",
"H. c #D99453",
"J. c #E09743",
"K. c #D3AC4D",
"L. c #E8B846",
"P. c #E7BC51",
"I. c #E6A647",
"U. c #CE8A65",
"Y. c #D3936B",
"T. c #CBB274",
"R. c #E3B56C",
"E. c #F6C347",
"W. c #F4C756",
"Q. c #EFC255",
"!. c #F3CA65",
"~. c #E9C876",
"^. c #646C83",
"/. c #747A8A",
"(. c #6B748B",
"). c #7D8393",
"_. c #848B9B",
"`. c #838895",
"'. c #979495",
"]. c #848586",
"[. c #B29A8B",
"{. c #B1A992",
"}. c #9299AA",
"|. c #8F99B1",
" X c #9CA5B7",
".X c #A4AAB6",
"XX c #B1B5BC",
"oX c #ACABA7",
"OX c #D09E8A",
"+X c #D2B089",
"@X c #CABAB0",
"#X c #DDC486",
"$X c #EFD289",
"%X c #ECD496",
"&X c #EDD086",
"*X c #CEC9B7",
"=X c #D8CAB9",
"-X c #D8CBAC",
";X c #E9D8A8",
":X c #E7D8B1",
">X c #AFB8C9",
",X c #B4B9C4",
"<X c #BEC2C8",
"1X c #BCC5D7",
"2X c #DBD6C9",
"3X c #CACFD5",
"4X c #CBD2DC",
"5X c #D8D9DA",
"6X c #C6C8CC",
"7X c #E4DCC3",
"8X c #DFE1DF",
"9X c #EAE1C8",
"0X c #E9E4D0",
"qX c #C7D1E2",
"wX c #D5DBE6",
"eX c #DEE3E7",
"rX c #DDE6F5",
"tX c #E4E8EA",
"yX c #E3EDFC",
"uX c #E4EBF4",
"iX c #E9F1FA",
/* pixels */
"< < < < < < < < < < < < < < < < < < < < < , < < < < < < , < < < < < , 1 < 1 < , < < < < 1 < : = o X X @ & : 1 1 < : < < < 1 < < ",
"< < < < < < < < < < < < < < , < < < < < < 1 < < < , < < < < < < < < < 1 < , < < < < < < < < : & o X X @ & : 1 < 1 1 < < < : < < ",
"< < < < < < < < < < < < < < < < < < < < , , < < < < < < , 1 < < < , 1 , < < < < < < < < < < : & o X X @ & : < < < < < < < < < < ",
"< < < < < 1 < < < < < 1 < < 1 < < , < < 1 1 1 < 1 < < 1 < 1 , 1 < < < < < < < < < < < < 1 < : & % X X @ & : 1 1 1 < < 1 < < 1 < ",
"< 1 < < 1 < < < 1 < < 1 < 1 < < < , < < < < < < < < 1 < < < < , < < < < < 1 < < < < < < 1 < < & o X X % & : 1 1 1 1 < 1 < 1 < < ",
"< < < < < < < < < < < < < < < < < < < < < < < < < < < < < < < < < < < < < , 1 , < < < < < < : & @ X . @ & : < 1 < < < 1 < < < < ",
": , = , , , = , : : : : : : : , < < < < : : : : : : : : , , 1 < < < < < 1 , < < < < < < < : = % o . . o & & : < : : : : : : : : ",
"& * * * & & * * & & & & & & = = : , , : = = & & & & = = : , < < 1 , , < < < 1 , < < < : = & & o X . . X o & & & * & * * * * * % ",
"@ @ @ @ @ @ @ @ @ @ @ X @ @ @ & = : : = & % o o @ @ % & = , 1 1 1 < < < < < < < < < , = & % o X       . X @ @ @ @ @ @ @ @ @ @ @ ",
"X X X X X + + + + @ + # + + @ # ; v v ; ; + + + + + + # * - v v , < < < < < < 1 1 , , & % o .   .     . . . X X X X X X X X X X ",
"X X . + $ $ 0 0 $ $ 0 $ $ $ 0 y t x x r e e $ $ $ 0 e e r x x v v < < < < < , < 1 < , = % o X X . X X X X X X X X X X X X X X . ",
"@ o # # q a u a u u u u u i i a a a a w a i i i i i i p a f g x v < < , < < < 1 < < , = & % o o @ @ @ @ @ @ @ @ @ @ o @ @ @ @ @ ",
"* * # t a p d d d d d d d d d d d f d d f d d d S D s d d f p g c v 1 1 < < 1 < < < , : = & & & & & * & & * * & & & & & & & & & ",
"; r t g f d d d d 5 d 8 d 5 d d s p s s s s S S s S s d S d D a t v v v < < , < < < , < , , : : : : : , : : : : , = , , : : , , ",
"g t g a d d d d 5 5 8 8 7 4 4 4 4 4 4 s 4 4 S S 4 S s S S d S p g t t c v < < < < , 1 , 1 < < < < < < < < < < < < < < < < < < , ",
"f f f f d S d d d d S d d d d d S d d S S S S S S S S S S s D D S f g x v 1 < < < < < < 1 < 1 < 1 1 < < 1 1 1 < < < 1 < < 1 < 1 ",
"d d d d S d d H H l l b m l K T L U Y U T z j j t l l H D d S S 5 p f t > < < < < < < < < < < < 1 1 1 < < < < 1 < < < < < < < 1 ",
"d d S d d D k P M M _ ~ / ' m.`._.).).).].m.) / ~ ~ M I P h S S 5 5 h t > < < < < < < < < < < < , < < < < < < < < < < < < < < < ",
"S S d d S f K _ ` [ } #.$.B.{.oX,X>X>XXX{.N.v.$.} } [  .P H D s 5 d f t > > < < < < < < < < < < < < , 1 < < < < < 1 < < < < < < ",
"d d d 8 S f P  .{ C.0.a.k.P.#X=X5XwXwX4X-X~.k.y.8.Z.D.[ _ H d s d d f t > > < < < < < > < < < > < > < < < < > < < > < < < < < < ",
"d S d S S h M [ V.A.d.s.h.Q.%X0XrXyXuXeX7X~.z.z.s.e.Z.} ' z S 8 5 d h g x > c c > > c > > > c > v v c v v v c v v c v v > < < < ",
"d d d 7 4 h M ] 0.j.s.3.z.W.%X0XuXyXiXtX:X~.z.,.3.d.e.V.) Z d 7 5 d d g g t t t g t t g t y g t g t t t g t t t t t t c v > < < ",
"S d S 7 S k V +.r.g.:.:.;.Q.%X2XeXrXrX5X:X~.z.<.:.<.a.9.( m f 8 5 d d f f h a h f k f p h h h a a f a h f a h f f f a g x > < < ",
"S d S 7 7 g V #.t.<.&.>.;.Q.#X*X3XqX4X6X-X~.l.<.>.>.;.5.Q n 5 7 5 d d 5 d d 5 5 5 d 5 5 p 5 5 5 S S S d d d d d d S d h t v > < ",
"d d S 8 8 k C @.-.>.&.&.;.L.N.oX.X X X.X{.K.k.<.,.,.;.5...j 5 9 7 7 7 7 7 7 7 8 5 5 5 5 4 4 4 4 5 5 7 7 8 7 7 7 8 S d f g t c c ",
"d S S 8 8 k C @.-.>.&.&.=.u.b.m./.(.(.).m.v.u.<.,.,.;.5...j 5 9 7 7 7 7 7 8 7 7 5 5 5 4 4 4 4 5 5 5 7 7 7 7 7 7 S S d d f g g g ",
"d S S 7 8 k V o.t.h.2.<.i.9.x.n F G G K V n.r.<.,.,.;.5...N f 4 5 f d f h d D f 5 h h 5 d G G G f D D f f f d f d d d d d p d f ",
"S d S 7 8 k A b.K.E.E.E.P.B.V j 5 6 6 d B X.r.<.,.,.;.r.o.! B N N N N N N N Z N N Z W W E ^.E ^.E T Z Z N N N Z j k f S S d D S ",
"d d d 4 s H W N.#X&X$X$X~.N.m.k 4 6 6 5 N X.r.<.,.2.<.*.6.@.X.X.X.X.X.X...........c.m.].}.|.|.}.'.m.c.x.X.O.X.Q V n f d 8 S S d ",
"d D d 4 4 F E {.*X:X9X9X=XoX).L 4 6 4 f B O.r.;.2.2.<.-.-.r.7.6.7.7.7.7.7.5.7.r.6.u.T.@X<X1X1X1X<X+XK.u.7.t.7.%...N h 8 8 S d D ",
"d S d 4 d J /..X3XeXeXeX5X>X).Y 5 6 5 f B O.r.<.2.2.;.:.g.f.k.z.f.k.z.;.g.;.;.:.;.z.~.;X2X8X8X2X*X~.P.f.:.>.<.t.o.V k 8 8 8 d d ",
"d d 5 4 4 J /..XqXrXyXyXwX<X).Y 5 6 4 f B O.r.<.2.:.<.z.z.W.!.!.!.!.E.z.z.,.&.&.>.z.W.~.%X;X;X;X$X!.z.z.,.,.,.i.@.V k 8 7 8 d d ",
"d d 5 4 4 G )..X4XrXiXuXwX>X).L 5 6 7 f B O.r.<.>.>.<.z.!.$X;X:X;X;X$X!.z.2.,.>.2.h.z.W.W.!.!.!.Q.E.h.2.&.&.>.*.@.C k 4 7 S S S ",
"d d p 4 4 G )..X3XtXtXtX5XXX_.L 5 6 4 f B O.r.;.>.>.g.L.~.:X7X5X5X7X:X#Xz.;.:.;.<.g.g.f.l.k.l.f.f.f.g.g.3.3.3.a.o.V k S 7 S d d ",
"d d 5 5 4 J /.'.*X:X9X9X*XoX).K 8 6 7 f B O.r.<.>.>.g.L.T.-X<X1X1X<X@XT.K.r.t.*.p.p.d.p.p.p.p.p.p.p.p.p.s.s.*.w.+.C g S 7 S S d ",
"d 5 5 5 5 k W N.+X&X$X$X#XN.m.K 7 9 9 f Z ..r.;.,.,.<.y.T.'.|.|.|.|.'.m.c.x.o.9.0.S.w.e.0.w.w.w.w.0.w.e.w.w.w.Z.] M k S 7 d d D ",
"d d 5 5 5 k V b.K.E.E.E.L.B.' k 7 9 9 f B O.r.<.,.,.g.u.b.| E ^.^.E E T Z B ' } F.G.C.C.C.C.C.C.C.C.C.C.C.C.F.D.` Z f 5 4 d d S ",
"d d 5 5 4 k V @.y.2.,.z.i.4...Z k d f j C +.r.<.,.,.;.5.( n G S G G f S S k M ` n.F.G.G.F.F.F.F.F.F.U.Y.U.Y.U.[  .I h d 8 S d d ",
"S d d 8 5 k C @.*.>.&.&.=.7.o.^ V B B C ..$.t.<.,.,.;.5.Q b p 6 6 4 5 6 7 d m ` V.H.A.C.S.Z.S.S.H.Y.Y.OXOXOXOXOX .W D d 5 d S d ",
"d S 8 7 5 k C @.*.>.&.>.:.*.5.%.@.o.@.@.4.r.=.<.2.,.;.5.Q n p 6 6 5 4 6 5 f A ] q.j.j.j.e.j.j.j.I.R.+X@X=X=X=X@X'./.F 4 4 d D d ",
"S f 5 8 8 k C @.a.<.>.1.<.=.i.i.y.t.t.t.i.;.;.<.2.2.s.5.Q n d S 5 5 d 7 5 k V o.y.p.<.g.=.;.;.g.L.R.-X2X5X8X5X6XoX/.J s 4 d S S ",
"S S 8 8 8 k V o.y.s.g.<.<.1.1.1.2.2.<.2.2.<.<.<.1.g.p.9.( n d 7 5 d 5 7 5 k V o.t.2.,.1.:.;.*.r.I.R.-X8XtXuXeX4X X/.J s 4 s f S ",
"S S S 8 8 k A x.0.j.d.g.1.2.,.,.,.,.,.,.,.2.,.<.d.d.w.V.) m d 7 8 d d 7 8 k C @.i.,.,.,.>.-.6.@.b.{.=XwXyXiXuXqX.X/.K s 4 s S S ",
"f S d 8 8 f R ` V.J.j.s.1.>.2.2.2.2.2.2.2.,.2.g.d.e.Z.{ _ P d s 8 d 8 7 5 z C @.i.,.,.,.:.7.X./ c.'.<X8XuXiXtX4X.X/.J s 4 d d S ",
"d S S d 8 h P  .{ F.S.j.i.;.=.;.;.i.;.i.=.;.=.i.8.Z.D.[ _ l D s 5 d S 8 S k C O.r.;.<.;.t.%.! n T )..X3XeXtXwX<X}./.J s 4 S S d ",
"d d d d S D P A ` [ n.#.4.4.%.%.4.4.4.4.%.4.4.$.V.} [ _ I H d d S d S 8 8 h Z Q @.4.5.6.@...B k F (.}..X,X,X,X.X_.^.H s u S S d ",
"S d d S S d H P R A _ / ^ ^ ( ^ ^ ^ ^ ^ ^ ( ^ / _ _ M I H H d S d d S S S f z N / ^ ( ( / C j f G Y (.)._._._./.(.K D d d d f S ",
"d D d S d S f D H l z z j j j j j j j j j j j j l l l H D S S d S d d d d d h k j j j j j k f d 8 G L U L L E L J H S d d d S S ",
"p p p d d d d S S d d d d S d d s S S S d S S S S S S d S d d d d p p s d d d d d S d S d S d S S d d S d d d p d S d d p p p p ",
"0 q q p p d S s S d 7 7 7 7 7 7 7 S S S 7 S 4 S S S S s d S d p i q q p p d S S S 7 7 7 S S S d d 5 d 4 4 4 s 4 s d d d p q q q ",
"O O $ q p d d S d s S d s d S 7 d S S S S S S s s d S S s S p u 0 O O q p S s S S S d s S S S S d d 4 d s s 4 s s d d p q O O + ",
"@ o O e a d d S d d d d d d d d d d d S s d d d d d d d d d p q $ # # e i d d d d d d d d d d p d p d d d d d p d d p i 0 # # o ",
"& & ; # y i a a a a a g g g f g h g g f a k g f a a i i i g a r ; * ; # y a a a a a a a a a a i i i i i i a a a a a a y r * * * ",
": : - v x x t t r t t x t x t x c x t c x x t x x t x t t t x x - = - v x t t t r t r r r r r e $ $ $ e e r r t t r r x - - , = ",
"1 < < , v v , v v - - v > - v v - - v - v v v v - v - v v - v < , < < < , v v v , v > > > > - ; # # + # ; - > > > > > > > < < < ",
"1 1 < < 1 1 < < 1 1 < < 1 < 1 1 < 1 1 < < 1 < < 1 1 1 1 1 < 1 1 1 1 < 1 < 1 1 < 1 < < 1 1 < , = & % @ & * < < 1 1 1 < 1 < 1 < 1 ",
"< 1 1 1 < < < 1 1 < 1 1 < < < : < < < < < , < < 1 < < 1 < 1 < < < 1 1 < < < 1 < 1 < < < 1 < , , = & * = = < < < < 1 < < < < < 1 ",
"< < < : < < < < < < : < < < < 1 < < , 1 < 1 < , , < < < < < < < < , < < < < < < 1 , < < < < < , < , < , < < < < < < < < < < < < ",
"< < < < < < < < < < < < < < < < < < < < < < , < < < < < < < 1 < < , 1 1 , < < < < < < < < < < < < < < < < < < < < < < < < < < < ",
"< < < < < < < < < < < < < < < < < < < , , 1 1 < < < < , < < , < < < < , < < 1 , 1 , < < < < < < < < < < < < < < < < < < < < < < ",
"< < < < 1 1 : < : < < < < < < < 1 < < < < < < , < < < < , 1 < < < , , < < < < < < < , < , < < < < 1 < < < < < < , < 1 , < < < < ",
"< < < < : < 1 < 1 < < < : 1 < < , < , 1 < < < < < < , < < < , 1 < < 1 < < < < < < 1 < < 1 < < < < < < < < , < < < < < < < < < , ",
"< < : 1 < < < < 1 : < < : < < < , 1 , < < < 1 < , < 1 < , 1 < < < < , 1 , < < < < , < < < < , < 1 , < < < < < < < < < < , < < < ",
"< < < < < < < < < 1 < < 1 < < < < < 1 < < < , < 1 < 1 , < < < < < < < < 1 1 , < < 1 , < 1 , < < < < < < < < < < < < < < < < < < "
};
