/* XPM */
static char *result[] = {
/* columns rows colors chars-per-pixel */
"64 64 69 1 ",
"  c #755338",
". c #765439",
"X c #704F35",
"o c #664831",
"O c #5C402B",
"+ c #553A28",
"@ c #674831",
"# c #765438",
"$ c #765338",
"% c #775539",
"& c #715036",
"* c #5D402B",
"= c #5D402C",
"- c #785539",
"; c #664830",
": c #725136",
"> c #735237",
", c #745238",
"< c #725036",
"1 c #745338",
"2 c #745237",
"3 c #735137",
"4 c #704F36",
"5 c #6B4B33",
"6 c #63452F",
"7 c #5A3E2A",
"8 c #543927",
"9 c #664730",
"0 c #694932",
"q c #6C4C33",
"w c #684932",
"e c #6D4C34",
"r c #684931",
"t c #563B28",
"y c #523826",
"u c #573B28",
"i c #5C3F2B",
"p c #5B3F2B",
"a c #60422D",
"s c #6D4D34",
"d c #5B3E2B",
"f c #654730",
"g c #6C4C34",
"h c #533826",
"j c #503625",
"k c #513625",
"l c #533827",
"z c #573B29",
"x c #62442E",
"c c #6A4B33",
"v c #533927",
"b c #593D2A",
"n c #61432E",
"m c #694A32",
"M c #553A27",
"N c #513726",
"B c #513725",
"V c #523726",
"C c #543A27",
"Z c #775439",
"A c #5B3E2A",
"S c #714F36",
"D c #6F4F35",
"F c #654630",
"G c #60432D",
"H c #64462F",
"J c #5A3D2A",
"K c #6A4A32",
"L c white",
/* pixels */
"                                           .. XoO++OoX ..       ",
"                                           .. XoO++OoX ..       ",
"                                           .. X@O++O@X ..       ",
"############.##$    $##..##$               .%$&@*++*@&#%%.######",
"...............#    #......#               .%#&@=++=@&.-%.......",
"                                           #. X;O++O;X .#       ",
"XXXXXXXXXXXXXX&:>,,>:&XXXX&<>,            123456788765X&&XXXXXXX",
"ooooooooooo99@0q4334q0o99owqX3 $        $ >4er6=tyyu=6;@@@oooooo",
"OOOOOOOOOOOipOa9s<<s9aOddOafq< ##      ## <g9a7thjklz7O=*OOOOOOO",
"+++++++++++88+7xc&&cx7+vv+bnm& .#      #. &mnbMyNBBVvC++++++++++",
"+++++++++++88+7xc&&cx7+vv+bnm& .#      #. &mnb+88+++++++++++++++",
"OOOOOOOOOOOipOa9s<<s9aOddOafq< ##      ## <qfa*iO====OOOOOOOOOOO",
"ooooooooooo99@0q4334q0o99owqX3 $        $ 3Xqw@;@@@@@@oooooooooo",
"XXXXXXXXXXXXXX&:>,,>:&XXXX&<>,            ,><&XXXXXXXXXXXXXXXXXX",
"                                                                ",
"...............#    #......#                #...................",
".............##$    $#....#$                $##.................",
"                                                                ",
"                                                                ",
"                    ####                                        ",
"                   $#..#$                                       ",
"                                                                ",
"                  1><&&<>1                                      ",
".................#24gmmg42#Z..#$    $#....#$                $##.",
"...............%%.3e9nn9e3.%%..#    #......#                #...",
"               ## 4rabbar4 #$                                   ",
"XXXXXXXXXXXXXXX&&X56ACCA65X&SX&:>,,>:&XXXX&<>,            ,3<&XX",
"oo@@@@@@@@oooo@@@;6=tNNt=69@@@0q4334q0o99owqX3 $        $ 3Dqw@9",
"OOO======OOOOOO*=O7uhjjhu7iiiOa9s<<s9aOddOafq< ##      ## <qFaOp",
"++++++++++++++++++ClVBBVlC+M8+7xc&&cx7+vv+bnm& .#      #. &0Gb+v",
"++8vVBBVlC+++++++++++++++++88+7xc&&cx7+vv+bnm& .#      #. &0Gb+v",
"=O7uhjjhu7O=*OOOOOO======OOipOa9s<<s9aOddOafq< ##      ## <qFaOp",
"r96=tNNt=6;@@@oooo@@@@@@@@o99@0q4334q0o99owqX3 $        $ 3Dqw@9",
"<X5HpMCA65X&&XXXXXXXXXXXXXXXXX&:>,,>:&XXXX&<>,            ,3<&XX",
"Z 40GJbar4 ##                                                   ",
"-.3s9nn9e3.%%..................#    #......#                #...",
"Z#24eKmg42#..................##$    $#....#$                $##.",
"  1><&&<>1                                                      ",
"                                                                ",
"    #..#$                                                       ",
"    $###                                                        ",
"                                                                ",
"                                                                ",
".........##$            $##.....................................",
"...........#            #.......................................",
"                                                                ",
"XXXXXXXXXX&<>,        ,><&XXXXXXXXXXXXXXXXXXXXXXXXXXXXXXXXXXXXXX",
"ooooooo99@wqX3 $    $ 3Xqw@99ooooooooooooooooo@@@@@@@@oooooooooo",
"OOOOOOOipOafq< ##  ## <qfaOpiOOOOOOOOOOOOOOOOOO======OOOOOOOOOOO",
"+++++++88+bnm& .#  #. &mnb+88+++++++++++++++++++++++++++++++++++",
"+++++++88+bnm& .#  #. &mnb+88+++++++++++++++++ClVBBVlC++++++++++",
"OOOOOOOipOafq< ##  ## <qfaOpiOOOOOOOOOOOOOO*=O7uhjjhu7O=*OOOOOOO",
"ooooooo99@wqX3 $    $ 3Xqw@99ooooooooooooo@@@;6=tNNt=6;@@@oooooo",
"XXXXXXXXXX&<>,        ,><&XXXXXXXXXXXXXXXXX&&X56ACCA65X&&XXXXXXX",
"                                           ## 4rabbar4 ##       ",
"...........#            #..................%%.3e9nn9e3.%%.......",
".........##$            $##..................#24gmmg42#.........",
"                                              1><&&<>1          ",
"                                                                ",
"                                                #..#            ",
"                                                $##$            ",
"                                                                ",
"                                                                ",
"                                                                "
};
