/* XPM */
static char *result[] = {
/* columns rows colors chars-per-pixel */
"64 64 167 2 ",
"   c #1D160D",
".  c #161F0E",
"X  c #1B1E0E",
"o  c #1F1F12",
"O  c #25170F",
"+  c #201A0F",
"@  c #271610",
"#  c #291711",
"$  c #241E13",
"%  c #2C1B15",
"&  c #2E1E19",
"*  c #311D15",
"=  c #0F240D",
"-  c #072D0D",
";  c #0B2C0E",
":  c #14220E",
">  c #122A0F",
",  c #0A320F",
"<  c #0F2F10",
"1  c #1C2611",
"2  c #142D13",
"3  c #1C2C14",
"4  c #1E2918",
"5  c #0C3411",
"6  c #0E3B13",
"7  c #133412",
"8  c #1B3514",
"9  c #133C14",
"0  c #1A3B15",
"q  c #193219",
"w  c #1F3E18",
"e  c #232414",
"r  c #2D2216",
"t  c #232E15",
"y  c #2B2A17",
"u  c #242419",
"i  c #2E211C",
"p  c #2C291B",
"a  c #342117",
"s  c #34241B",
"d  c #3A251B",
"f  c #342B1A",
"g  c #3D291E",
"h  c #233316",
"j  c #263519",
"k  c #2B3519",
"l  c #273B19",
"z  c #2B3A1B",
"x  c #34341C",
"c  c #3A321D",
"v  c #343A1D",
"b  c #393A1F",
"n  c #252C20",
"m  c #2D2E23",
"M  c #342523",
"N  c #372820",
"B  c #3D2B23",
"V  c #352D2B",
"C  c #3C2D2B",
"Z  c #253220",
"A  c #293122",
"S  c #313226",
"D  c #3D3D21",
"F  c #343329",
"G  c #3C322D",
"H  c #3E3232",
"J  c #432D1F",
"K  c #40311F",
"L  c #452E21",
"P  c #453322",
"I  c #4C3424",
"U  c #433C23",
"Y  c #4B3B25",
"T  c #43332E",
"R  c #4D362A",
"E  c #4F382A",
"W  c #513626",
"Q  c #523A27",
"!  c #553A28",
"~  c #593E2A",
"^  c #453634",
"/  c #493731",
"(  c #473835",
")  c #4A3935",
"_  c #513E36",
"`  c #0F4115",
"'  c #124416",
"]  c #1A4517",
"[  c #124718",
"{  c #1C4518",
"}  c #154A19",
"|  c #1B4C19",
" . c #1B531C",
".. c #1E5A1F",
"X. c #24441B",
"o. c #2D441D",
"O. c #244D1C",
"+. c #2D4A1E",
"@. c #33411F",
"#. c #23561D",
"$. c #225A1F",
"%. c #29581F",
"&. c #1F5B20",
"*. c #344720",
"=. c #3A4322",
"-. c #344B20",
";. c #3A4923",
":. c #2F5420",
">. c #235D20",
",. c #2B5D21",
"<. c #256323",
"1. c #2A6523",
"2. c #276825",
"3. c #2B6B26",
"4. c #336325",
"5. c #326D27",
"6. c #2D7027",
"7. c #2E7228",
"8. c #32742A",
"9. c #39762A",
"0. c #357C2C",
"q. c #3A7C2C",
"w. c #444125",
"e. c #4A4227",
"r. c #454926",
"t. c #4E4729",
"y. c #4F4829",
"u. c #54452A",
"i. c #5C412B",
"p. c #52482A",
"a. c #5D492E",
"s. c #554036",
"d. c #5C4436",
"f. c #595B30",
"g. c #62462F",
"h. c #62492F",
"j. c #654730",
"k. c #654932",
"l. c #6B4D35",
"z. c #604738",
"x. c #664A38",
"c. c #6C4E38",
"v. c #704F35",
"b. c #6E5035",
"n. c #675934",
"m. c #6F5038",
"M. c #725137",
"N. c #755338",
"B. c #785539",
"V. c #4E6C2F",
"C. c #477E30",
"Z. c #37812E",
"A. c #3B822F",
"S. c #3D8630",
"D. c #3F8831",
"F. c #41832F",
"G. c #418531",
"H. c #438C33",
"J. c #488F34",
"K. c #588237",
"L. c #469135",
"P. c #4A9536",
"I. c #4C9837",
"U. c #4C9738",
"Y. c #4E9A39",
"T. c #519E3A",
"R. c #53A03B",
/* pixels */
"N.N.N.N.N.M.N.N.N.N.N.N.N.N.N.N.N.N.N.N.N.N.N.N.N.N.N.N.N.N.N.N.N.N.M.N.N.N.M.h.h.h.h.h.l.M.v.h.~ ! ! ~ j.v.N.N.B.N.N.N.N.N.N.N.",
"N.N.N.N.N.N.N.N.N.N.N.N.N.N.N.N.N.N.M.N.N.N.N.B.N.N.N.N.N.N.N.N.N.N.N.N.N.N.l.e.k z z z w.l.M.j.g.W W g.h.M.N.B.N.N.N.N.N.N.N.N.",
"N.N.N.N.N.N.N.N.N.N.N.N.N.N.N.N.M.b.h.h.a.h.a.a.h.l.M.N.N.N.N.N.N.N.N.N.M.h.y.o.X.] ] ] o.t.h.h.~ ! ! ~ j.M.M.B.N.N.N.N.N.N.N.N.",
"N.N.N.N.N.B.N.N.N.N.N.N.N.N.N.N.M.a.b l k k k k v u.M.N.N.N.N.B.N.N.N.N.h.w.@.4.9.9.9.q.4.o.w.i.~ ! W g.h.M.B.B.B.N.B.N.M.N.N.N.",
"N.B.N.B.N.B.N.B.B.N.N.B.N.N.N.M.a.r.X.] ] ] ] ] X.;.h.M.N.N.N.h.h.p.h.M.n.;.%.q.R.R.R.R.F.%.@.w.Q K K Y i.M.B.B.B.N.B.B.B.B.N.N.",
"N.N.N.N.N.M.N.N.N.N.N.N.N.N.M.a.=.+.5.q.9.9.q.C.9.%.@.p.M.N.b.t.v k b a.n.V.F.I.R.R.R.R.I.F.4.o.h h t h K l.N.B.N.N.N.N.N.N.N.N.",
"v.M.v.M.v.M.v.M.v.v.M.v.v.M.l.e.h %.I.R.R.T.R.R.U.5.+.@.p.a.p.@.9 9 { w.f.K.T.T.R.R.R.R.R.R.q.] > , 9 9 X.e.h.M.v.v.N.v.v.v.v.v.",
"j.j.j.j.j.j.j.j.j.g.j.j.g.j.g.U 8 %.U.R.R.R.R.R.T.J.9.+.z k z O.$.<.%.o.-.C.R.R.R.R.R.R.R.R.q.] 9 #.<.<.O.l K h.j.j.j.j.j.j.j.h.",
"i.i.i.~ ~ g.~ i.g.~ i.~ Y Y Y x 8 #.J.R.R.R.R.R.R.R.Y.5.] , 7 ,.A.D.8.] ] 9.T.R.R.R.R.R.Y.J.4.|  .7.A.A.1.] l U ~ ~ ~ i.i.~ i.~ ",
"! ! ! ! ! ! ! ! ! ! Q K h t h > < $.L.R.R.R.R.R.R.R.T.P.9.| 9 1.P.Y.A.| ] 9.R.R.R.R.R.R.H.1. .$.8.H.Y.I.G.1.| h c Y ! ! ! ! ! ! ",
"! ! ! ! ! ! ! ! ! W I v 0 ' ] ] | 1.H.T.R.R.R.R.R.R.R.R.P.5.%.9.R.R.L.%.#.q.R.R.R.R.R.R.G.$.%.8.L.T.R.R.I.D.,.9 h I ~ ! ! ! ! ! ",
"i.i.i.i.i.~ ~ i.~ Y k X.%.5.q.A.F.F.A.J.T.R.R.R.R.R.R.R.T.L.G.U.R.R.I.0.8.H.R.R.R.R.R.R.I.G.G.L.I.R.R.R.R.P.3.7 x W i.~ ~ ~ g.~ ",
"j.j.j.j.h.g.u.Y Y c 7 ] 8.J.Y.R.T.I.H.J.T.R.R.T.R.R.R.R.R.R.T.R.R.R.T.J.D.P.R.R.R.R.R.R.R.Y.R.R.R.R.R.R.R.P.3.0 v i.j.j.j.j.j.l.",
"v.v.v.v.M.h.b h h 7 > | A.T.R.R.R.T.I.Y.T.R.R.R.R.R.R.R.R.R.R.R.R.R.T.Y.Y.Y.R.R.R.R.R.R.R.R.R.R.R.R.R.R.I.D.>.7 b g.v.v.v.v.v.v.",
"N.N.B.v.h.r.+.O.| ] , O.J.R.R.R.R.R.R.T.R.R.R.R.T.R.T.R.R.R.T.R.R.R.R.R.R.R.R.R.R.R.R.R.R.R.R.R.R.R.Y.P.A.1.| , b k.N.N.N.N.N.N.",
"B.N.N.j.@.+.5.F.F.1.9 #.H.R.R.R.R.R.R.R.R.R.R.R.R.R.R.R.R.R.R.R.R.R.R.R.R.R.R.R.R.R.R.T.R.R.R.R.R.R.I.D.3.] 5 , b l.N.B.N.B.B.N.",
"B.B.B.a.j ] A.R.R.J.1.1.J.R.R.R.R.R.R.R.R.R.R.R.R.R.R.R.R.R.R.R.T.R.R.R.R.R.R.T.R.R.T.R.R.T.R.R.R.R.I.D.8.#.| O.+.p.h.N.B.N.N.B.",
"v.N.M.a.j } F.R.R.Y.H.J.Y.R.R.R.R.R.R.R.R.T.R.R.R.R.R.T.R.R.R.T.R.R.R.R.R.R.R.R.R.R.R.R.R.R.R.R.R.R.T.U.P.G.F.F.4.o.e.l.N.N.N.N.",
"B.B.B.i.l ] A.T.Y.I.R.R.R.R.R.R.R.R.R.T.R.R.R.T.R.T.R.T.R.R.R.R.R.R.R.T.T.R.R.R.R.T.R.R.R.R.T.R.R.R.R.R.R.R.R.T.9.%.@.t.k.M.N.N.",
"B.v.N.i.l ] C.I.H.H.Y.R.R.R.R.R.T.R.R.R.R.R.R.R.R.R.R.R.T.R.R.R.R.R.R.R.R.R.R.R.R.R.R.R.T.R.R.R.R.R.T.R.R.R.R.R.Y.F.4.o.e.l.M.N.",
"N.N.N.h.U +.4.q.F.L.Y.R.R.R.R.R.R.R.R.R.T.R.R.R.T.R.R.R.R.R.T.R.T.R.R.R.R.R.R.T.R.R.T.R.R.T.R.R.R.R.R.R.R.R.R.R.R.T.q.%.+.p.k.M.",
"N.N.N.M.l.t.o.%.A.T.R.R.R.R.R.R.T.R.R.T.R.R.R.T.R.R.R.R.R.R.R.R.R.R.T.R.R.T.R.R.R.R.R.R.R.R.R.R.R.T.R.R.R.R.R.R.R.R.Y.G.4.z e.M.",
"N.N.N.N.M.a.j ] F.R.R.R.R.R.R.R.R.R.R.R.R.T.R.R.R.R.R.R.T.R.R.R.T.R.R.R.R.R.R.T.R.R.R.R.R.R.R.R.R.R.Y.P.P.R.R.R.R.R.R.I.1.0 b b.",
"B.N.N.N.M.a.l | A.R.R.R.R.T.R.R.R.R.R.R.R.R.R.R.R.R.T.R.R.R.R.R.R.R.R.R.R.R.R.R.R.R.R.T.R.T.R.R.R.R.P.D.H.Y.R.R.R.R.R.I.4.0 D b.",
"B.N.B.b.i.@.+.<.H.R.R.T.P.I.Y.R.R.R.R.R.R.T.R.R.R.R.R.R.R.R.R.T.R.R.R.R.R.R.R.T.R.R.R.R.R.R.T.R.R.R.I.L.H.P.Y.R.R.R.R.Y.5.0 D M.",
"N.N.N.a.v X.,.q.L.R.R.I.D.H.Y.R.T.R.R.R.R.R.R.R.R.T.R.R.R.T.R.R.R.R.R.T.R.R.R.R.R.T.R.R.R.T.R.R.R.R.T.I.L.A.H.I.R.R.R.P.1.0 b l.",
"l.M.l.a.h ' 5.L.T.R.R.P.Z.Z.H.P.T.R.T.R.R.R.R.R.R.R.R.T.R.R.R.T.T.R.R.R.R.T.R.R.Y.U.U.T.R.R.R.R.R.R.R.R.G.3.3.8.G.P.I.G.%.8 b l.",
"j.j.g.Y h | q.R.R.R.T.L.S.Z.A.L.T.R.R.R.T.R.R.R.R.R.R.R.R.R.R.R.R.R.R.R.R.R.R.R.I.H.D.U.T.T.R.R.R.R.R.Y.A.<. .$.3.8.A.8.$.8 b g.",
"i.~ Y v X.,.H.R.R.R.I.L.H.D.G.L.T.T.R.R.T.R.T.R.T.R.R.R.R.R.R.R.R.R.R.R.R.R.R.R.Y.L.S.q.A.H.I.T.R.R.T.L.A.8.1.1.<.$.$.#.O.x K i.",
"~ P h 0 $.0.L.R.T.L.A.A.P.Y.T.R.T.T.R.R.R.R.R.R.R.R.T.R.R.R.R.R.R.R.T.R.R.R.R.T.R.Y.G.2.<.7.D.P.T.Y.P.D.F.J.L.L.1.| , 0 v U Q W ",
"! K 8 9 1.A.H.H.A.8.1.8.P.R.R.R.R.R.R.R.R.T.R.R.R.R.R.R.T.R.R.T.R.R.R.R.R.R.R.R.R.R.L.9.1.<.3.8.A.J.D.Z.H.T.R.T.F.1.9 2 x W Q Q ",
"~ Y t 9 <.0.0.7.$.|  .3.L.R.R.R.R.R.T.R.R.R.R.R.R.T.R.R.R.R.R.R.R.R.R.R.T.R.R.R.R.R.T.Y.A.>.}  .<.8.Z.0.H.T.R.R.Y.H.<.0 x u.i.i.",
"j.u.h 7 ] $.<...} | 2.q.I.R.R.R.R.I.P.I.Y.R.R.R.R.T.R.R.R.R.R.R.T.R.R.R.R.R.R.R.T.R.R.R.I.0.2.$.2.7.A.D.I.R.R.R.Y.L.1.' h D u.g.",
"N.p.k < , 6 ' ' [ >.A.Y.R.R.R.R.Y.P.A.H.T.R.R.R.R.R.R.T.R.T.R.R.R.R.R.R.T.R.R.R.T.T.R.R.R.I.H.0.8.0.A.I.Y.Y.R.Y.P.A.2.} 6 8 U l.",
"N.l.e.k > - , 6 ` <.J.R.R.R.R.R.R.L.Z.D.Y.R.R.R.R.R.T.P.L.P.R.R.R.R.R.R.R.R.R.R.T.P.P.Y.R.R.Y.P.D.Z.A.H.L.L.L.L.S.0.3...] 7 D l.",
"B.N.b.e.h - - 6 ' <.L.R.R.R.R.R.Y.L.D.H.Y.R.R.R.R.R.T.L.D.L.Y.R.R.R.T.R.R.R.R.T.Y.D.S.P.T.R.R.R.L.Z.0.Z.Z.0.8.Z.0.0.0.6.| 8 D M.",
"N.N.M.i.j ; ]  ...8.P.R.R.R.R.I.L.L.H.P.R.R.R.R.R.R.T.P.H.H.L.I.R.R.R.R.R.T.R.R.Y.P.D.H.P.Y.R.R.P.A.0.0.2.<.&.<.3.0.Z.8. .7 U b.",
"N.N.M.p.l ] 1.8.8.S.P.T.Y.Y.R.P.A.H.I.R.R.Y.Y.R.R.R.R.T.I.H.S.L.T.R.R.T.R.R.R.R.R.T.I.S.D.I.R.Y.P.S.Z.0.3. .} } >.6.0.3. .8 =.b.",
"N.b.t.@.O.2.Z.L.L.H.H.H.H.L.H.S.Z.D.Y.R.R.U.L.P.R.R.R.R.Y.H.Z.L.T.R.R.R.R.R.R.R.R.R.I.S.Z.D.H.L.H.H.H.L.0.<. .`  ...2...] 7 U b.",
"M.h.v 0 $.0.L.T.T.I.D.A.A.Z.0.0.Z.D.I.R.T.L.D.J.I.T.T.T.Y.D.Z.L.T.R.R.R.R.R.T.R.R.Y.P.S.0.0.Z.Z.D.I.T.Y.L.Z.<. .[ } } } 6 < U b.",
"N.a.h 5  .8.L.R.R.T.L.H.H.S.0.0.0.S.D.U.Y.Y.L.D.H.H.H.H.D.A.Z.L.T.R.T.R.R.R.R.R.T.L.D.S.0.0.8.8.D.Y.R.R.Y.P.0.<. .[ [ ` 6 7 U b.",
"N.a.v 7 ' $.F.T.R.T.T.T.T.P.S.0.0.0.S.H.Y.R.Y.L.S.0.Z.0.0.Z.A.L.T.T.R.R.R.T.T.Y.U.D.0.7.8.0.Z.Z.D.I.T.T.R.Y.L.0.&.} ` 6 5 2 D b.",
"N.b.p.b 0 | 8.P.T.R.R.R.R.Y.L.S.0.S.D.U.R.R.R.Y.L.S.0.8.0.S.H.H.J.U.R.R.Y.L.H.H.D.Z.7.<.3.S.L.L.L.D.L.T.R.R.P.0.<.' , , > 1 U M.",
"N.N.N.u.k ' $.A.P.Y.T.U.T.R.R.L.A.S.I.R.R.R.R.R.Y.H.0.0.A.L.Y.H.S.P.T.R.Y.H.q.0.0.7.2.&.2.G.R.R.P.D.L.Y.R.Y.L.0...5 - ; : % I j.",
"N.N.B.g.f 1 0 $.0.S.8.q.Y.R.R.L.S.D.R.R.R.R.R.R.T.H.S.S.L.Y.T.Y.L.H.L.Y.Y.U.S.2.&.&.>.<.8.P.R.R.Y.I.U.Y.I.L.S.0.$.' , ; : % d I ",
"N.M.v.~ a : 7 | 3.7.&.2.H.U.Y.H.S.H.Y.R.R.R.R.R.Y.S.0.D.Y.R.R.T.U.H.D.U.R.R.J.3. .[  .3.S.L.Y.I.I.Y.R.Y.P.Z.0.6.>.} 5 ; e r % % ",
"M.g.W a e > X.<.7.7.2.<.2.0.S.S.q.D.Y.R.R.R.R.I.H.7.2.A.T.R.R.R.Y.U.U.Y.R.R.Y.H.2.] [ 2.A.D.A.7.0.U.Y.L.S.0.3.<. .[ 5 , e r # # ",
"j.~ d + = 9 <.0.0.0.0.2.| &.7.0.Z.S.L.I.Y.Y.I.D.7.&. .8.I.R.R.R.R.Y.U.Y.R.R.R.Y.q.| 9 >.7.7.2.$.3.D.L.Z.7.6.<.} [ ' 5 , 1 r * # ",
"i.W * + = ' 2.A.0.0.0.2.' | 3.Z.0.7.6.8.D.H.D.7...} } 2.D.I.R.R.Y.L.L.Y.R.R.T.P.9.] , '  . ...<.7.S.0.<.&.&. .[ ` ` 6 - 1 r % @ ",
"! J * + = 9 <.8.0.0.7.$.5 ] 2.7.7.2...<.8.Z.0.<.} [ } <.Z.L.I.Y.I.S.S.D.P.I.P.D.3.] - - , ` ..6.0.0.2.| ' ' ' ` [ [ 5 < 4 i % % ",
"! I *   = 9 2.0.0.7.<.} , 6  ...&.&.<.3.8.0.0.&.[ ` } <.0.A.D.G.D.Z.0.3.7.Z.D.Z.3.} 5 - , 6  .6.0.0.<.' 6 ` ' [ [ ' 6 < 4 M M M ",
"~ J * O . 0 >.7.7.2. .6 , , 6 ` } ..7.0.Z.0.0.&. .[ } ..7.8.Z.0.0.q.6.&. .<.7.7.2. .6 , , 6  .2.8.7.$.5 5 6 ` ` ` ` 6 < n V H C ",
"j.~ * # $ t { |  ...[ 6 , - , 5 ' ..7.Z.0.Z.0.6.2. .[ } &.6.0.0.0.0.7.&.}  ...&. .} ` , - , '  .&.&.} , - , 5 5 , 5 q Z V H H ^ ",
"v.g.B * & p 4 7 6 ` ` 7 < ; , , `  .3.7.6.7.8.0.0.&.[ [ } &.3.6.7.7.<.&.' [ ` [ [ ` 6 5 > > < 9 ' 6 5 ; = 2 2 2 5 q A G ^ H ^ ( ",
"N.l.R B C T V j 7 5 , 7 3 1 ; , '  . . .| <.8.Z.0.<.[ [ [ [ } |  .&.&.[ [ ' ' ' ' 6 7 3 e e 1 2 , 5 = . e m S A S S G ^ ( ( ^ ( ",
"N.v.d.) ( ( ^ F q 2 ; 1 a y t 7 6 ` ` , , } 3.6.2...[ ` ` 5 , 9 ` ` ` ` ` ` ` 6 6 ; : r s d y 3 7 2 1 $ & V ^ ^ ( ( ^ ( ( ^ ) s.",
"B.N.c.z.) ) ( ^ G m o % g P c j , , , - - '  ... . .' 6 5 2 e 2 , , , , 5 5 , , < . o & d J K c c f f & & & M ^ ) ) ( ( ( ) s.x.",
"M.N.N.c.d.) ( ( ^ C % * K W W c h 2 > > > < ` ` ` ` 6 9 3 y s y 2 < > : ; 2 2 2 4 $ % % s J I R W I I g * # & ^ ( ( ( ( ( _ x.N.",
"N.N.N.M.c.z._ ( ^ V % * J Q W I g f y e e 3 , - , , 7 h c J L L x p e X o n S F V V M % % d J I ! W I I d # & C ( ( ^ ( _ x.c.N.",
"N.N.N.N.B.l.d.) ( C & s I W R I I J s a r e 3 q 2 ; > f I W W I L d % % & C ( ) ^ ^ T i & s L I R R E I B & M ^ ) _ _ _ x.M.N.N.",
"N.N.N.N.N.v.c.d.) T C T T E R I g d s & # i V F A u $ d I W W L N * # M C ^ ( ( ( ( ^ C C C T ^ R / / R T T C / _ x.x.x.c.N.N.N.",
"N.N.N.N.N.N.N.c.d._ _ ) / / E L B d d s & M ^ ( ( M s g R E I L N & i C ( ( ^ ( ( ^ ^ ^ ( ( ( ( ( ( ( ( ) _ _ _ z.v.B.N.N.N.N.N.",
"N.N.N.N.N.N.N.N.l.l.x.z.) ^ ^ T T T T G C T ^ ( ( T C T / / / T T C T T ( ( ( ^ ^ ( ( ( ( ( ( ( ( ^ ( ( _ x.c.x.v.N.N.N.N.N.N.N.",
"N.N.M.N.N.N.N.N.N.B.N.x._ ( ( ( ( ( ( ( ( ( ( ( ( ( ( ( ( ( ) ^ ^ ^ ( ( ( ^ ( ^ ^ ( ^ ( ( ( ^ ( ^ ( ( ) s.c.N.N.N.N.N.N.N.N.N.N."
};
